<svg xmlns="http://www.w3.org/2000/svg" xmlns:xlink="http://www.w3.org/1999/xlink" width="2000" zoomAndPan="magnify" viewBox="0 0 1500 1499.999933" height="2000" preserveAspectRatio="xMidYMid meet" version="1.0"><defs><g/></defs><g fill="#2dd4bf" fill-opacity="1"><g transform="translate(225.005112, 866.624905)"><g><path d="M 127.046875 -245 C 157.847656 -245 183.164062 -238.753906 203 -226.265625 C 222.832031 -213.785156 232.984375 -195.296875 233.453125 -170.796875 L 233.453125 -166.59375 L 161 -166.59375 L 161 -168 C 161 -175 158.429688 -180.832031 153.296875 -185.5 C 148.160156 -190.164062 140.34375 -192.5 129.84375 -192.5 C 119.582031 -192.5 111.707031 -190.984375 106.21875 -187.953125 C 100.738281 -184.921875 98 -181.1875 98 -176.75 C 98 -170.445312 101.734375 -165.78125 109.203125 -162.75 C 116.671875 -159.71875 128.6875 -156.566406 145.25 -153.296875 C 164.613281 -149.328125 180.535156 -145.1875 193.015625 -140.875 C 205.503906 -136.5625 216.414062 -129.503906 225.75 -119.703125 C 235.082031 -109.898438 239.863281 -96.597656 240.09375 -79.796875 C 240.09375 -51.328125 230.46875 -30.207031 211.21875 -16.4375 C 191.96875 -2.675781 166.242188 4.203125 134.046875 4.203125 C 96.484375 4.203125 67.257812 -2.09375 46.375 -14.6875 C 25.488281 -27.289062 15.046875 -49.578125 15.046875 -81.546875 L 88.203125 -81.546875 C 88.203125 -69.410156 91.347656 -61.300781 97.640625 -57.21875 C 103.941406 -53.132812 113.742188 -51.09375 127.046875 -51.09375 C 136.847656 -51.09375 144.957031 -52.144531 151.375 -54.25 C 157.789062 -56.351562 161 -60.671875 161 -67.203125 C 161 -73.035156 157.441406 -77.410156 150.328125 -80.328125 C 143.210938 -83.242188 131.601562 -86.332031 115.5 -89.59375 C 95.894531 -93.800781 79.675781 -98.175781 66.84375 -102.71875 C 54.007812 -107.269531 42.8125 -114.796875 33.25 -125.296875 C 23.6875 -135.796875 18.90625 -150.03125 18.90625 -168 C 18.90625 -194.363281 29.113281 -213.785156 49.53125 -226.265625 C 69.945312 -238.753906 95.785156 -245 127.046875 -245 Z M 127.046875 -245 "/></g></g></g><g fill="#2dd4bf" fill-opacity="1"><g transform="translate(477.701031, 866.624905)"><g><path d="M 175.34375 0 L 98 0 L 98 -93.453125 L 2.453125 -240.796875 L 91.34375 -240.796875 L 137.546875 -160.65625 L 138.953125 -160.65625 L 185.15625 -240.796875 L 269.5 -240.796875 L 175.34375 -93.453125 Z M 175.34375 0 "/></g></g></g><g fill="#2dd4bf" fill-opacity="1"><g transform="translate(749.996645, 866.624905)"><g><path d="M 127.40625 -57.75 L 241.84375 -57.75 L 241.84375 0 L 8.40625 0 L 8.40625 -24.84375 L 120.046875 -183.046875 L 16.796875 -183.046875 L 16.796875 -240.796875 L 239.046875 -240.796875 L 239.046875 -215.953125 Z M 127.40625 -57.75 "/></g></g></g><g fill="#2dd4bf" fill-opacity="1"><g transform="translate(1002.692608, 866.624905)"><g><path d="M 175.34375 0 L 98 0 L 98 -93.453125 L 2.453125 -240.796875 L 91.34375 -240.796875 L 137.546875 -160.65625 L 138.953125 -160.65625 L 185.15625 -240.796875 L 269.5 -240.796875 L 175.34375 -93.453125 Z M 175.34375 0 "/></g></g></g></svg>