<svg xmlns="http://www.w3.org/2000/svg" xmlns:xlink="http://www.w3.org/1999/xlink" width="2000" zoomAndPan="magnify" viewBox="0 0 1500 1499.999933" height="2000" preserveAspectRatio="xMidYMid meet" version="1.0"><defs><g/><clipPath id="0b643a74a3"><rect x="0" width="902" y="0" height="328"/></clipPath></defs><g transform="matrix(1, 0, 0, 1, 300, 586)"><g clip-path="url(#0b643a74a3)"><g fill="#2dd4bf" fill-opacity="1"><g transform="translate(0.504004, 263.967033)"><g><path d="M 108.78125 -209.765625 C 135.144531 -209.765625 156.816406 -204.421875 173.796875 -193.734375 C 190.773438 -183.046875 199.46875 -167.210938 199.875 -146.234375 L 199.875 -142.640625 L 137.84375 -142.640625 L 137.84375 -143.828125 C 137.84375 -149.828125 135.644531 -154.820312 131.25 -158.8125 C 126.851562 -162.8125 120.160156 -164.8125 111.171875 -164.8125 C 102.378906 -164.8125 95.632812 -163.507812 90.9375 -160.90625 C 86.25 -158.3125 83.90625 -155.117188 83.90625 -151.328125 C 83.90625 -145.929688 87.097656 -141.929688 93.484375 -139.328125 C 99.878906 -136.734375 110.171875 -134.039062 124.359375 -131.25 C 140.941406 -127.851562 154.578125 -124.304688 165.265625 -120.609375 C 175.953125 -116.910156 185.289062 -110.863281 193.28125 -102.46875 C 201.269531 -94.082031 205.363281 -82.703125 205.5625 -68.328125 C 205.5625 -43.953125 197.320312 -25.867188 180.84375 -14.078125 C 164.363281 -2.296875 142.335938 3.59375 114.765625 3.59375 C 82.609375 3.59375 57.585938 -1.796875 39.703125 -12.578125 C 21.828125 -23.367188 12.890625 -42.445312 12.890625 -69.8125 L 75.515625 -69.8125 C 75.515625 -59.425781 78.207031 -52.484375 83.59375 -48.984375 C 88.988281 -45.492188 97.382812 -43.75 108.78125 -43.75 C 117.164062 -43.75 124.101562 -44.644531 129.59375 -46.4375 C 135.09375 -48.238281 137.84375 -51.9375 137.84375 -57.53125 C 137.84375 -62.53125 134.796875 -66.273438 128.703125 -68.765625 C 122.609375 -71.265625 112.671875 -73.914062 98.890625 -76.71875 C 82.109375 -80.3125 68.222656 -84.054688 57.234375 -87.953125 C 46.242188 -91.847656 36.65625 -98.289062 28.46875 -107.28125 C 20.28125 -116.269531 16.1875 -128.453125 16.1875 -143.828125 C 16.1875 -166.410156 24.925781 -183.046875 42.40625 -193.734375 C 59.882812 -204.421875 82.007812 -209.765625 108.78125 -209.765625 Z M 108.78125 -209.765625 "/></g></g></g><g fill="#2dd4bf" fill-opacity="1"><g transform="translate(216.858317, 263.967033)"><g><path d="M 150.125 0 L 83.90625 0 L 83.90625 -80.015625 L 2.09375 -206.15625 L 78.203125 -206.15625 L 117.765625 -137.546875 L 118.96875 -137.546875 L 158.515625 -206.15625 L 230.734375 -206.15625 L 150.125 -80.015625 Z M 150.125 0 "/></g></g></g><g fill="#2dd4bf" fill-opacity="1"><g transform="translate(449.993589, 263.967033)"><g><path d="M 109.078125 -49.4375 L 207.0625 -49.4375 L 207.0625 0 L 7.1875 0 L 7.1875 -21.28125 L 102.78125 -156.71875 L 14.390625 -156.71875 L 14.390625 -206.15625 L 204.671875 -206.15625 L 204.671875 -184.890625 Z M 109.078125 -49.4375 "/></g></g></g><g fill="#2dd4bf" fill-opacity="1"><g transform="translate(666.347902, 263.967033)"><g><path d="M 150.125 0 L 83.90625 0 L 83.90625 -80.015625 L 2.09375 -206.15625 L 78.203125 -206.15625 L 117.765625 -137.546875 L 118.96875 -137.546875 L 158.515625 -206.15625 L 230.734375 -206.15625 L 150.125 -80.015625 Z M 150.125 0 "/></g></g></g></g></g></svg>